Coordinates
version=1
nRows=16
nColumns=63
inDegrees=yes

Units are S.I. units (second, meters, Newtons, ...)
If the header above contains a line with 'inDegrees', this indicates whether rotational values are in degrees (yes) or radians (no).

endheader
time	pelvis_tilt	pelvis_list	pelvis_rotation	pelvis_tx	pelvis_ty	pelvis_tz	hip_flexion_r	hip_adduction_r	hip_rotation_r	knee_angle_r	knee_angle_r_beta	ankle_angle_r	subtalar_angle_r	mtp_angle_r	hip_flexion_l	hip_adduction_l	hip_rotation_l	knee_angle_l	knee_angle_l_beta	ankle_angle_l	subtalar_angle_l	mtp_angle_l	L5_S1_Flex_Ext	L5_S1_Lat_Bending	L5_S1_axial_rotation	L4_L5_Flex_Ext	L4_L5_Lat_Bending	L4_L5_axial_rotation	L3_L4_Flex_Ext	L3_L4_Lat_Bending	L3_L4_axial_rotation	L2_L3_Flex_Ext	L2_L3_Lat_Bending	L2_L3_axial_rotation	L1_L2_Flex_Ext	L1_L2_Lat_Bending	L1_L2_axial_rotation	L1_T12_Flex_Ext	L1_T12_Lat_Bending	L1_T12_axial_rotation	Abs_r3	Abs_r2	Abs_r1	Abs_t1	Abs_t2	neck_flexion	neck_bending	neck_rotation	arm_flex_r	arm_add_r	arm_rot_r	elbow_flex_r	pro_sup_r	wrist_flex_r	wrist_dev_r	arm_flex_l	arm_add_l	arm_rot_l	elbow_flex_l	pro_sup_l	wrist_flex_l	wrist_dev_l
2.450000	0.115283	-14.223846	100.506895	0.223249	0.393617	0.654169	6.066921	1.245828	-5.374900	12.100268	0.211190	15.500954	-12.717974	0.000000	0.651650	1.064441	-11.316709	0.509215	0.008887	20.846557	8.515654	0.000000	0.124659	-0.341444	0.983134	0.231505	-0.454120	1.044580	0.204803	-0.830186	1.044580	0.142473	-0.830186	0.860242	0.115759	-0.696272	0.798797	0.071230	-0.528896	0.737351	0.890429	-3.862477	5.467898	0.000000	0.000000	25.962438	0.064682	-17.685302	36.911113	-5.558538	12.384128	126.062048	88.595693	-7.133590	3.040402	18.746374	-7.766820	64.184250	30.985288	87.954957	-19.359281	-8.173689
2.466667	0.032356	-15.256866	99.652901	0.225150	0.392436	0.657087	7.784041	1.039689	-4.018486	12.773479	0.222939	15.357889	-13.852111	0.000000	2.026280	1.303461	-12.216192	0.763795	0.013331	20.917630	8.320165	0.000000	0.168679	-0.373776	1.210969	0.313254	-0.497122	1.286655	0.277123	-0.908799	1.286655	0.192783	-0.908799	1.059598	0.156635	-0.762204	0.983913	0.096383	-0.578979	0.908227	1.204858	-4.228229	6.735048	0.000000	0.000000	26.768350	-0.126813	-17.411022	37.009448	-6.087186	13.973433	125.779492	90.455807	-6.753571	2.867522	18.758311	-8.116040	61.033579	32.490669	87.970091	-17.411162	-7.320855
2.483333	-0.052213	-16.289779	98.951150	0.226700	0.391461	0.660077	9.470739	0.830852	-2.993103	13.405528	0.233971	15.111914	-14.781971	0.000000	3.490115	1.505110	-13.175503	1.152231	0.020110	21.065227	8.348840	0.000000	0.210950	-0.407397	1.404587	0.391756	-0.541837	1.492374	0.346570	-0.990544	1.492374	0.241095	-0.990544	1.229014	0.195888	-0.830763	1.141227	0.120537	-0.631057	1.053441	1.506797	-4.608551	7.811894	0.000000	0.000000	27.450866	-0.281458	-17.146765	36.900213	-6.551914	14.744652	125.165927	91.072653	-6.433991	3.006382	18.810285	-8.437059	58.441419	33.961368	87.930889	-15.832002	-6.378443
2.500000	-0.109849	-17.286684	98.422245	0.227849	0.390739	0.663127	11.095188	0.635513	-2.327250	14.003652	0.244410	14.737429	-15.517112	0.000000	5.019935	1.668969	-13.881395	1.683220	0.029378	21.203554	8.176777	0.000000	0.247448	-0.436991	1.549279	0.459535	-0.581198	1.646109	0.406532	-1.062499	1.646109	0.282808	-1.062499	1.355619	0.229780	-0.891111	1.258789	0.141392	-0.676899	1.161959	1.767494	-4.943326	8.616624	0.000000	0.000000	27.948665	-0.383330	-16.798994	36.588305	-6.938305	14.752708	124.225905	90.589817	-6.286444	3.547557	18.850611	-8.743483	56.166755	35.450186	87.898340	-14.453424	-5.239091
2.516667	-0.124463	-18.240376	98.076337	0.228586	0.390242	0.666238	12.654459	0.477746	-2.064536	14.567686	0.254254	14.235519	-16.030244	0.000000	6.617377	1.752093	-14.395283	2.373286	0.041422	21.372618	7.946882	0.000000	0.277789	-0.460321	1.645470	0.515882	-0.612227	1.748312	0.456380	-1.119225	1.748312	0.317485	-1.119225	1.439786	0.257955	-0.938687	1.336945	0.158729	-0.713037	1.234103	1.984220	-5.207245	9.151612	0.000000	0.000000	28.207483	-0.482832	-16.429477	36.029560	-7.267973	14.046988	123.023613	88.956420	-6.280437	4.445959	18.933866	-9.024979	54.394664	36.891807	87.811941	-13.364849	-4.007866
2.533333	-0.087443	-19.148542	97.854360	0.228969	0.389880	0.669373	14.169675	0.342490	-2.047658	15.133598	0.264131	13.655727	-16.437928	0.000000	8.269936	1.793044	-14.589093	3.213077	0.056079	21.519650	7.388583	0.000000	0.301489	-0.475138	1.693383	0.559895	-0.631934	1.799220	0.495316	-1.155251	1.799220	0.344572	-1.155251	1.481710	0.279963	-0.968902	1.375874	0.172271	-0.735989	1.270038	2.153505	-5.374860	9.418090	0.000000	0.000000	28.224244	-0.547933	-15.954384	35.242541	-7.492532	12.797837	121.618793	86.797334	-6.479673	5.783149	18.990300	-9.296447	52.793445	38.371159	87.730654	-12.492387	-2.545904
2.550000	0.018809	-20.010090	97.750003	0.229000	0.389531	0.672537	15.656625	0.254113	-2.249748	15.718466	0.274339	13.046347	-16.753272	0.000000	9.986926	1.758310	-14.489025	4.227126	0.073777	21.697863	6.569287	0.000000	0.316927	-0.479989	1.704954	0.588564	-0.638386	1.811513	0.520679	-1.167046	1.811513	0.362215	-1.167046	1.491834	0.294298	-0.978794	1.385275	0.181092	-0.743504	1.278715	2.263774	-5.429736	9.482441	0.000000	0.000000	28.062339	-0.618888	-15.524754	34.221070	-7.690345	11.212808	120.090827	83.982275	-6.918741	7.370654	19.071736	-9.540871	51.364771	39.854912	87.598315	-11.822198	-0.998413
2.566667	0.184545	-20.843362	97.734144	0.228739	0.389043	0.675724	17.145901	0.198020	-2.578078	16.340142	0.285189	12.491241	-17.017693	0.000000	11.777720	1.683234	-14.048538	5.410317	0.094428	21.885834	5.389781	0.000000	0.324436	-0.476510	1.683268	0.602509	-0.633759	1.788472	0.533015	-1.158587	1.788472	0.370797	-1.158587	1.472859	0.301271	-0.971700	1.367655	0.185382	-0.738114	1.262451	2.317411	-5.390379	9.361832	0.000000	0.000000	27.817575	-0.702479	-15.191817	33.015158	-7.865993	9.555013	118.435306	81.213070	-7.596454	8.926498	19.142427	-9.752964	49.859431	41.419662	87.429532	-11.291261	0.698374
2.583333	0.414449	-21.667107	97.789105	0.228232	0.388246	0.678973	18.679646	0.181997	-2.933657	17.030387	0.297236	12.052691	-17.272835	0.000000	13.667100	1.568849	-13.309836	6.781564	0.118361	22.110627	3.884802	0.000000	0.325341	-0.465431	1.636430	0.604191	-0.619023	1.738707	0.534503	-1.131649	1.738707	0.371832	-1.131649	1.431876	0.302112	-0.949107	1.329599	0.185900	-0.720953	1.227322	2.323878	-5.265049	9.101332	0.000000	0.000000	27.557960	-0.809985	-15.069514	31.709374	-8.073153	8.062303	116.634672	78.837451	-8.433648	10.267996	19.215163	-9.902836	48.166480	43.069981	87.228299	-10.871593	2.480186
2.600000	0.678916	-22.532867	97.874421	0.227592	0.386934	0.682380	20.343322	0.196097	-3.205431	17.843667	0.311431	11.809022	-17.529212	0.000000	15.708992	1.438652	-12.352160	8.356699	0.145852	22.375395	2.103121	0.000000	0.325795	-0.453344	1.574465	0.605034	-0.602948	1.672870	0.535249	-1.102261	1.672870	0.372351	-1.102261	1.377657	0.302533	-0.924460	1.279253	0.186159	-0.702230	1.180849	2.327121	-5.128321	8.756705	0.000000	0.000000	27.327438	-0.960010	-15.374256	30.384223	-8.330148	6.878305	114.652029	76.927760	-9.138840	11.289446	19.314687	-9.975395	46.241605	44.804506	86.972757	-10.555573	4.266296
2.616667	0.993083	-23.436847	98.067858	0.226755	0.384978	0.686057	22.118419	0.255218	-3.518082	18.745515	0.327171	11.807154	-17.677978	0.000000	17.924259	1.279062	-11.130180	10.168256	0.177470	22.703615	0.118983	0.000000	0.325358	-0.438060	1.483999	0.604221	-0.582620	1.576749	0.534530	-1.065099	1.576749	0.371851	-1.065099	1.298499	0.302127	-0.893292	1.205749	0.185909	-0.678555	1.112999	2.323996	-4.955424	8.253557	0.000000	0.000000	27.112520	-1.048188	-15.915748	29.195401	-8.679901	6.248849	112.438924	75.509499	-9.727791	12.029131	19.521022	-9.950919	44.352997	46.543166	86.614347	-10.547538	5.932084
2.633333	1.316557	-24.422402	98.170272	0.226052	0.382193	0.690189	24.167599	0.363469	-3.524497	19.931953	0.347878	12.066215	-17.903202	0.000000	20.349311	1.110529	-9.878590	12.221791	0.213310	23.100626	-2.027656	0.000000	0.327273	-0.420675	1.379213	0.607778	-0.559498	1.465414	0.537676	-1.022830	1.465414	0.374040	-1.022830	1.206811	0.303905	-0.857841	1.120610	0.187004	-0.651626	1.034410	2.337675	-4.758765	7.670768	0.000000	0.000000	26.966693	-0.987038	-16.180507	28.302008	-8.996595	6.284017	109.854863	74.574102	-9.712921	12.449422	19.723873	-9.901320	41.983868	48.427651	86.214834	-10.610812	7.428906
2.650000	1.693558	-25.472672	98.262456	0.225396	0.378510	0.694862	26.456966	0.528111	-3.385210	21.362518	0.372846	12.590535	-18.101929	0.000000	22.990997	0.918826	-8.559161	14.532426	0.253639	23.582465	-4.251054	0.000000	0.328256	-0.393648	1.245938	0.609604	-0.523552	1.323809	0.539291	-0.957116	1.323809	0.375163	-0.957116	1.090196	0.304818	-0.802727	1.012324	0.187565	-0.609761	0.934453	2.344698	-4.453027	6.929532	0.000000	0.000000	26.871904	-0.698595	-15.769491	27.830007	-9.292400	7.172420	106.915739	74.129342	-9.445490	12.663983	19.945827	-9.817563	39.293229	50.417158	85.824689	-10.877310	8.618828
2.666667	2.093559	-26.618846	98.369351	0.224805	0.373816	0.700151	29.032271	0.705980	-3.112781	23.074327	0.402723	13.371073	-18.298630	0.000000	25.877928	0.753093	-7.199540	17.085185	0.298193	24.127306	-6.499426	0.000000	0.331896	-0.361833	1.087490	0.616365	-0.481237	1.155458	0.545273	-0.879760	1.155458	0.379324	-0.879760	0.951554	0.308199	-0.737849	0.883586	0.189646	-0.560479	0.815617	2.370702	-4.093122	6.048293	0.000000	0.000000	26.828660	-0.204497	-14.665077	27.755345	-9.546225	8.768343	103.725231	74.174614	-8.864702	12.860236	20.201721	-9.733337	36.328943	52.511790	85.520777	-11.288139	9.440938
2.683333	2.511098	-27.858261	98.474564	0.224362	0.368039	0.706032	31.893762	0.888082	-2.736325	25.074357	0.437630	14.416522	-18.480022	0.000000	29.007068	0.596020	-5.886661	19.883656	0.347035	24.794043	-8.621573	0.000000	0.338316	-0.327171	0.918500	0.628287	-0.435138	0.975906	0.555820	-0.795484	0.975906	0.386662	-0.795484	0.803687	0.314161	-0.667168	0.746281	0.193314	-0.506788	0.688875	2.416560	-3.701027	5.108421	0.000000	0.000000	26.837948	0.450806	-12.899980	28.051385	-9.771186	10.990142	100.364051	74.706163	-8.309700	12.902571	20.507744	-9.656668	33.212254	54.685047	85.328438	-11.735058	9.883808
2.700000	3.008373	-29.206835	98.667436	0.223927	0.361114	0.712549	35.058476	1.047756	-2.358768	27.347606	0.477306	15.711582	-18.630765	0.000000	32.423273	0.480474	-4.553327	22.933528	0.400266	25.573344	-10.628902	0.000000	0.351012	-0.280815	0.737504	0.651864	-0.373484	0.783598	0.576677	-0.682773	0.783598	0.401172	-0.682773	0.645316	0.325950	-0.572637	0.599222	0.200568	-0.434982	0.553128	2.507243	-3.176632	4.101778	0.000000	0.000000	26.898683	1.292463	-10.071531	28.703530	-10.013080	13.735360	96.965288	75.719806	-7.807918	12.767600	20.855545	-9.628110	30.195863	56.897642	85.248496	-12.570223	9.534246
